<svg width="44" height="45" viewBox="0 0 44 45" fill="none" xmlns="http://www.w3.org/2000/svg">
<g clip-path="url(#clip0_2112_1330)">
<g filter="url(#filter0_b_2112_1330)">
<rect width="44" height="44" transform="translate(0 0.771423)" fill="black"/>
<path d="M9.54976 28.7279C9.49814 28.8827 9.54976 28.986 9.54976 28.986C9.54976 28.986 9.60138 29.0376 9.75625 29.0892C9.91112 29.1409 10.2222 29.1925 10.5835 29.1409C11.3076 29.0892 12.3414 28.8828 13.6346 28.5201C15.031 28.0541 16.6856 27.4347 18.495 26.5558C18.495 26.7622 18.5467 27.0217 18.5467 27.2282C13.5829 29.5552 9.653 30.4857 8.98059 29.2971C8.10168 27.7457 12.9621 23.2996 19.8902 19.2664C21.235 18.4907 22.5785 17.7667 23.8717 17.1459C23.8717 17.3524 23.9234 17.6118 23.9234 17.8183C22.7347 18.3875 21.4931 19.0599 20.2012 19.7826C16.7888 21.7469 13.8411 23.8674 11.9284 25.6252C10.9462 26.5041 10.2738 27.2798 9.8595 27.9522C9.65433 28.3136 9.54976 28.5201 9.54976 28.7279Z" fill="white"/>
<path d="M24.546 17.5597C24.546 17.3532 24.4944 17.0937 24.4944 16.8872C29.4065 14.5602 33.3364 13.6813 34.0088 14.8713C34.8877 16.4226 30.0273 20.8688 23.0992 24.902C21.7544 25.6777 20.4109 26.4017 19.1177 27.0225C19.1177 26.816 19.066 26.5566 19.066 26.3501C20.2547 25.7809 21.4963 25.1085 22.7882 24.3858C26.2006 22.4215 29.1483 20.301 31.061 18.5431C32.0432 17.6642 32.7156 16.8886 33.1286 16.2161C33.3351 15.9064 33.4383 15.647 33.4899 15.4921C33.5416 15.3372 33.4899 15.234 33.4899 15.234C33.4899 15.234 33.4383 15.1824 33.2834 15.1307C33.1286 15.0791 32.8175 15.0275 32.4562 15.0791C31.7321 15.1307 30.6983 15.3372 29.4051 15.6999C28.01 16.06 26.3554 16.6807 24.546 17.5597Z" fill="white"/>
<path d="M33.2339 29.0917C33.3888 29.0401 33.4404 28.9884 33.4404 28.9884C33.4404 28.9884 33.4921 28.9368 33.4404 28.7303C33.3888 28.5755 33.2856 28.3173 33.0791 28.0063C32.6661 27.3855 31.9937 26.6098 31.0115 25.6793C29.9261 24.6971 28.5297 23.5588 26.8751 22.4734C27.0816 22.3185 27.2365 22.2153 27.4443 22.0604C31.8904 25.1631 34.6317 28.1095 33.9593 29.2995C33.132 30.696 27.7024 29.1446 21.4468 25.7322C21.6533 25.629 21.9127 25.4741 22.1192 25.3709C24.8075 26.819 27.341 27.9044 29.3583 28.5252C30.5999 28.9381 31.6336 29.146 32.4093 29.146C32.821 29.1949 33.0791 29.1433 33.2339 29.0917Z" fill="white"/>
<path d="M21.4975 25.0036C21.291 25.1069 21.0316 25.2617 20.8251 25.365C20.5154 25.2101 20.2043 25.0036 19.8946 24.8474C18.5497 24.0718 17.2578 23.2445 16.0679 22.4688C16.2744 22.3139 16.4292 22.2107 16.637 22.0558C17.7224 22.7799 18.964 23.5555 20.2043 24.2796C20.6186 24.539 21.0832 24.7971 21.4975 25.0036Z" fill="white"/>
<path d="M16.065 21.6456C15.8585 21.8004 15.7037 21.9037 15.4958 22.0586C11.0497 18.9559 8.30838 16.0094 8.98079 14.8195C9.8597 13.2681 16.2199 15.2854 23.0963 19.2656C24.4411 20.0413 25.733 20.8686 26.923 21.6443C26.7165 21.7991 26.5616 21.9024 26.3538 22.0572C25.2684 21.3332 24.0268 20.5575 22.7865 19.8335C19.3742 17.8705 16.1166 16.3721 13.5832 15.5965C12.3416 15.1835 11.3078 14.9757 10.5321 14.9757C10.1694 14.9757 9.91133 14.9757 9.70484 15.0273C9.54997 15.0789 9.49834 15.1305 9.49834 15.1305C9.49834 15.1305 9.44672 15.1822 9.49834 15.3886C9.54997 15.5435 9.65321 15.8016 9.8597 16.1127C10.2727 16.7335 10.9451 17.5091 11.9273 18.4397C13.0153 19.4218 14.4104 20.5602 16.065 21.6456Z" fill="white"/>
<path d="M21.2879 8.35638C21.3912 8.25314 21.4944 8.25314 21.4944 8.25314C21.4944 8.25314 21.5976 8.25314 21.7009 8.35638C21.8558 8.45963 22.0106 8.71906 22.1668 9.0288C22.5282 9.70122 22.8392 10.6834 23.149 11.9753C23.6149 14.0428 23.9246 16.7841 24.0279 19.8351C24.2344 19.99 24.4938 20.0933 24.7003 20.2481C24.4938 13.1123 23.149 7.58072 21.4944 7.58072C20.1496 7.58072 18.9609 11.4074 18.495 16.8357C18.7015 16.939 18.908 17.0422 19.1158 17.1455C19.2707 15.1812 19.5288 13.4233 19.8398 11.9753C20.1496 10.6834 20.4606 9.6999 20.822 9.0288C20.9769 8.71774 21.1317 8.51125 21.2879 8.35638Z" fill="white"/>
<path d="M19.0655 17.8696C18.859 17.7664 18.6525 17.6631 18.4447 17.5599C18.3414 18.9564 18.2898 20.5077 18.2898 22.0577H18.9106C18.9106 20.6109 18.9622 19.1628 19.0655 17.8696Z" fill="white"/>
<path d="M24.6979 23.9185C24.6463 24.849 24.6463 25.7279 24.543 26.6068C24.3365 26.5036 24.1301 26.4003 23.9222 26.2971C23.9739 25.6763 23.9739 25.0039 24.0255 24.3328C24.232 24.1766 24.4385 24.0217 24.6979 23.9185Z" fill="white"/>
<path d="M24.701 20.9721C24.4945 20.8172 24.288 20.714 24.0286 20.5591C24.0286 21.025 24.0286 21.5413 24.0286 22.0072H24.6494C24.701 21.6961 24.701 21.3348 24.701 20.9721Z" fill="white"/>
<path d="M24.7007 23.1428C24.4942 23.2977 24.2878 23.4009 24.0283 23.5558C24.0283 23.0899 24.0283 22.5736 24.0283 22.1077H24.6491C24.7007 22.4188 24.7007 22.7801 24.7007 23.1428Z" fill="white"/>
<path d="M23.8742 26.9693C24.0807 27.0725 24.2872 27.1758 24.495 27.279C24.0291 32.6557 22.8404 36.534 21.4956 36.534C19.7378 36.534 18.2897 30.0706 18.2897 22.0558H18.9105C18.9105 26.0374 19.2718 29.6047 19.841 32.1381C20.1507 33.4314 20.4618 34.4135 20.8232 35.0859C20.978 35.3957 21.1329 35.6551 21.2891 35.7584C21.4439 35.8616 21.4956 35.8616 21.4956 35.8616C21.4956 35.8616 21.5988 35.8616 21.7021 35.7584C21.8569 35.6551 22.0118 35.3957 22.168 35.0859C22.5293 34.4135 22.8404 33.4314 23.1501 32.1381C23.4599 30.6927 23.7193 28.9349 23.8742 26.9693Z" fill="white"/>
<path fill-rule="evenodd" clip-rule="evenodd" d="M27.7518 16.0591C28.0099 16.525 28.6307 16.7315 29.1482 16.4204C29.6142 16.1623 29.8207 15.5415 29.5096 15.024C29.2515 14.558 28.6307 14.3515 28.1131 14.6626C27.6485 14.922 27.4937 15.5428 27.7518 16.0591Z" fill="white"/>
<path fill-rule="evenodd" clip-rule="evenodd" d="M13.1711 19.629C13.4292 19.1631 13.2743 18.5436 12.8097 18.2326C12.3438 17.9745 11.7243 18.1293 11.4133 18.5939C11.1552 19.0599 11.31 19.6793 11.7746 19.9904C12.2406 20.3001 12.86 20.0936 13.1711 19.629Z" fill="white"/>
<path fill-rule="evenodd" clip-rule="evenodd" d="M19.4268 30.4864C19.996 30.4864 20.4606 30.9523 20.4606 31.5202C20.4606 32.0894 19.9947 32.554 19.4268 32.554C18.859 32.554 18.3931 32.088 18.3931 31.5202C18.3931 30.951 18.859 30.4864 19.4268 30.4864Z" fill="white"/>
<path fill-rule="evenodd" clip-rule="evenodd" d="M21.4948 20.3525C22.4253 20.3525 23.201 21.1282 23.201 22.0587C23.201 22.9892 22.4253 23.7649 21.4948 23.7649C20.5642 23.7649 19.7886 22.9892 19.7886 22.0587C19.7886 21.0765 20.5126 20.3525 21.4948 20.3525Z" fill="white"/>
</g>
</g>
<defs>
<filter id="filter0_b_2112_1330" x="-2.19438" y="-1.42296" width="48.3888" height="48.3888" filterUnits="userSpaceOnUse" color-interpolation-filters="sRGB">
<feFlood flood-opacity="0" result="BackgroundImageFix"/>
<feGaussianBlur in="BackgroundImageFix" stdDeviation="1.09719"/>
<feComposite in2="SourceAlpha" operator="in" result="effect1_backgroundBlur_2112_1330"/>
<feBlend mode="normal" in="SourceGraphic" in2="effect1_backgroundBlur_2112_1330" result="shape"/>
</filter>
<clipPath id="clip0_2112_1330">
<path d="M0 22.7714C0 10.6212 9.84974 0.771423 22 0.771423C34.1503 0.771423 44 10.6212 44 22.7714C44 34.9217 34.1503 44.7714 22 44.7714C9.84974 44.7714 0 34.9217 0 22.7714Z" fill="white"/>
</clipPath>
</defs>
</svg>
